<svg width="1440" height="480" viewBox="0 0 1440 480" fill="none" xmlns="http://www.w3.org/2000/svg">
<rect width="1440" height="480" fill="#575757"/>
<path d="M128.679 306.95C129.947 314.202 126.885 328.25 104.487 326.425C76.489 324.144 66.3932 304.35 58.9909 322.719C51.5886 341.088 54.852 357.851 42.492 358.493C30.1319 359.136 35.451 345.547 -3.893 367.912C-35.3682 385.805 -40.1818 397.125 -38.6542 400.549" stroke="#9B9B9B" stroke-width="2"/>
<path d="M105 196.739C105 201.385 101.383 205.086 97 205.086C92.6171 205.086 89 201.385 89 196.739C89 192.093 92.6171 188.392 97 188.392C101.383 188.392 105 192.093 105 196.739Z" stroke="#9B9B9B" stroke-width="2"/>
<path d="M1344.75 171.508C1345.99 170.597 1347.75 171.372 1347.92 172.903L1349.46 186.934C1349.62 188.464 1348.07 189.602 1346.66 188.982L1333.74 183.299C1332.33 182.679 1332.12 180.766 1333.36 179.856L1344.75 171.508Z" stroke="#F8BC17" stroke-width="2"/>
</svg>
