<svg width="1110" height="506" viewBox="0 0 1110 506" fill="none" xmlns="http://www.w3.org/2000/svg">
<rect y="33" width="1110" height="473" rx="30" fill="url(#paint0_linear_3022_2)"/>
<path d="M1045.32 8.40942C1036.51 5.76877 1027.19 5.27611 1018.14 6.97259C1009.1 8.66907 1000.59 12.5054 993.327 18.1612C986.066 23.817 980.264 31.1281 976.406 39.4837C972.548 47.8393 970.307 55.2896 970.71 64.4842L1023.08 81.0258L1045.32 8.40942Z" fill="#C8A0CB"/>
<path d="M825 406.002L829.794 402.944L830.187 408.712L825 406.002ZM871.533 345.66L871.183 345.292L871.533 345.66ZM829.391 405.353C831.976 404.908 834.837 403.871 837.017 402.137C839.185 400.411 840.667 398.01 840.577 394.792L841.577 394.798C841.677 398.387 840.007 401.056 837.656 402.927C835.316 404.788 832.29 405.874 829.593 406.338L829.391 405.353ZM840.577 394.792C840.426 389.327 837.227 385.511 835.491 382.55C835.064 381.822 834.713 381.12 834.553 380.456C834.389 379.776 834.42 379.108 834.791 378.497C835.15 377.904 835.791 377.43 836.701 377.033C837.616 376.634 838.849 376.292 840.461 375.99L840.677 376.973C839.098 377.268 837.946 377.594 837.127 377.951C836.305 378.31 835.866 378.68 835.651 379.036C835.446 379.373 835.406 379.759 835.526 380.253C835.649 380.764 835.935 381.359 836.35 382.067C837.98 384.848 841.416 388.993 841.577 394.798L840.577 394.792ZM840.461 375.99C846.867 374.79 852.926 374.642 857.393 374.189C859.649 373.961 861.48 373.657 862.798 373.126C864.103 372.601 864.823 371.89 865.024 370.879L866.005 371.105C865.717 372.556 864.669 373.463 863.198 374.055C861.742 374.642 859.79 374.955 857.527 375.184C852.957 375.647 847.033 375.782 840.677 376.973L840.461 375.99ZM865.024 370.879C865.231 369.835 864.794 368.756 864.112 367.337C863.451 365.961 862.597 364.329 862.249 362.354C861.539 358.331 862.936 353.076 871.183 345.292L871.883 346.029C863.732 353.722 862.609 358.671 863.234 362.213C863.553 364.02 864.33 365.512 865.011 366.929C865.671 368.302 866.287 369.686 866.005 371.105L865.024 370.879ZM871.183 345.292C873.901 342.726 876.304 340.275 879.654 338.039C883.014 335.797 887.314 333.778 893.855 332.017L894.145 332.983C887.686 334.722 883.486 336.703 880.229 338.876C876.963 341.056 874.632 343.434 871.883 346.029L871.183 345.292Z" fill="black"/>
<defs>
<linearGradient id="paint0_linear_3022_2" x1="-242.812" y1="-46.5" x2="1304.4" y2="279.712" gradientUnits="userSpaceOnUse">
<stop stop-color="#FFCC00"/>
<stop offset="1" stop-color="#FFF5CB"/>
</linearGradient>
</defs>
</svg>
