<svg width="1110" height="972" viewBox="0 0 1110 972" fill="none" xmlns="http://www.w3.org/2000/svg">
<rect y="493" width="1110" height="473" rx="30" fill="url(#paint0_linear_3001_3)"/>
<g clip-path="url(#clip0_3001_3)">
<path d="M971.071 37.4366L971.011 39.268C970.97 39.8772 970.912 40.4864 970.858 41.0938C970.787 41.7011 970.69 42.3029 970.608 42.9084C970.512 43.5102 970.382 44.1082 970.271 44.7081C970.221 45.01 970.131 45.3025 970.068 45.6005L969.859 46.4911C969.715 47.0836 969.526 47.6648 969.364 48.2517C969.287 48.5479 969.179 48.833 969.085 49.1218L968.794 49.9881C968.702 50.2787 968.581 50.5601 968.473 50.8432L968.138 51.6947C966.278 56.2052 963.513 60.3431 960.061 63.8047C956.607 67.2644 952.468 70.0441 947.945 71.9239C943.425 73.8094 938.525 74.7819 933.623 74.7949C928.72 74.8043 923.813 73.8578 919.273 71.991C914.732 70.1317 910.567 67.365 907.081 63.909C903.597 60.453 900.797 56.3095 898.901 51.7804C896.998 47.2531 896.015 42.3476 896 37.4366C896.006 34.981 896.241 32.5255 896.729 30.1165C897.214 27.7094 897.935 25.3508 898.88 23.0834C900.769 18.5505 903.565 14.3996 907.049 10.9343C910.533 7.47084 914.7 4.69485 919.247 2.82619C923.79 0.950071 928.707 -0.00568692 933.62 -9.76977e-05C938.532 0.00921768 943.443 0.978017 947.977 2.86531C952.512 4.74516 956.665 7.52859 960.13 10.9939C963.595 14.4611 966.373 18.6083 968.243 23.1319C970.12 27.6535 971.075 32.546 971.071 37.4366ZM970.649 37.4366C970.639 32.6019 969.681 27.7709 967.815 23.3107C965.956 18.8486 963.203 14.7629 959.773 11.3516C956.344 7.94219 952.242 5.20906 947.768 3.37021C943.296 1.5239 938.458 0.583045 933.621 0.588634C928.783 0.59795 923.953 1.55184 919.49 3.40933C915.027 5.25937 910.938 7.99995 907.527 11.4112C904.116 14.8244 901.384 18.9064 899.544 23.3591C897.694 27.8082 896.768 32.6242 896.762 37.4366C896.751 42.2507 897.685 47.0668 899.527 51.5214C901.361 55.9779 904.09 60.0673 907.501 63.4898C910.912 66.9104 915.001 69.6584 919.469 71.5178C923.936 73.3827 928.776 74.3478 933.623 74.3608C938.471 74.3702 943.32 73.433 947.805 71.5867C952.292 69.7479 956.407 67.011 959.85 63.596C963.291 60.1791 966.057 56.0841 967.925 51.609L968.262 50.765C968.37 50.4818 968.493 50.2042 968.585 49.9154L968.878 49.0547C968.973 48.7678 969.082 48.4846 969.16 48.1902L969.405 47.3146C969.483 47.0221 969.577 46.7333 969.636 46.4352C969.765 45.8427 969.918 45.2559 970.021 44.6597C970.46 42.275 970.654 39.853 970.649 37.4366Z" fill="#FFCC00"/>
<path d="M974 40.671C973.927 58.9534 960.444 75.3857 942.281 78.4728C928.152 80.8743 910.488 75.0317 903.457 61.8709C895.161 46.3403 898.951 24.5293 911.68 12.6336C920.97 3.95164 935.622 -0.0241634 948.145 2.90832C965.887 7.06111 974.037 23.8158 974 40.671ZM973.798 40.671C973.731 26.1893 961.514 13.4123 948.791 8.1212C936.687 3.08717 923.984 3.96096 913.3 12.2796C899.351 23.1339 895.165 42.6738 905.486 57.2859C913.24 68.265 923.652 76.6377 937.546 76.6116C957.235 76.5762 973.828 60.4215 973.798 40.671Z" fill="url(#paint1_linear_3001_3)"/>
<g clip-path="url(#clip1_3001_3)">
<path d="M929.259 44.2658C929.259 46.1923 929.259 45.7296 929.259 47.387H939.778C939.778 45.7283 939.778 46.1923 939.778 44.2658C943.194 42.3764 945.512 38.7039 945.512 34.4829C945.512 28.3314 940.59 23.3464 934.518 23.3464C928.446 23.3464 923.524 28.3327 923.524 34.4829C923.525 38.7039 925.843 42.3764 929.259 44.2658Z" fill="#F8BC17" stroke="#132E47" stroke-width="2" stroke-miterlimit="10" stroke-linecap="round" stroke-linejoin="round"/>
<path d="M936.959 47.387L939.506 37.2875C937.397 37.8144 936.993 34.3599 938.321 34.5445C939.649 34.729 938.113 37.2222 936.003 37.5644C933.894 37.9067 932.462 33.3306 934.505 33.3306C936.901 33.3306 934.541 37.3401 932.058 37.3401C930.106 37.3401 929.715 34.6278 930.456 34.465C931.537 34.2278 931.212 36.6146 929.61 37.2081L932.135 47.3857" stroke="#132E47" stroke-width="1.5" stroke-miterlimit="10" stroke-linecap="round" stroke-linejoin="round"/>
<path d="M925.541 31.3181C925.541 31.3181 927.323 25.505 932.693 24.5296C934.629 24.1783 934.915 27.3791 931.686 27.7303C928.457 28.0828 926.512 29.9106 925.541 31.3181Z" fill="white"/>
<path d="M934.566 18.6152V21.266" stroke="#132E47" stroke-width="2" stroke-miterlimit="10" stroke-linecap="round" stroke-linejoin="round"/>
<path d="M950.22 34.4727H947.603" stroke="#132E47" stroke-width="2" stroke-miterlimit="10" stroke-linecap="round" stroke-linejoin="round"/>
<path d="M921.53 34.4727H918.913" stroke="#132E47" stroke-width="2" stroke-miterlimit="10" stroke-linecap="round" stroke-linejoin="round"/>
<path d="M945.635 23.2605L943.784 25.1345" stroke="#132E47" stroke-width="2" stroke-miterlimit="10" stroke-linecap="round" stroke-linejoin="round"/>
<path d="M925.348 43.8119L923.497 45.6859" stroke="#132E47" stroke-width="2" stroke-miterlimit="10" stroke-linecap="round" stroke-linejoin="round"/>
<path d="M945.635 45.6859L943.784 43.8119" stroke="#132E47" stroke-width="2" stroke-miterlimit="10" stroke-linecap="round" stroke-linejoin="round"/>
<path d="M925.348 25.1345L923.497 23.2605" stroke="#132E47" stroke-width="2" stroke-miterlimit="10" stroke-linecap="round" stroke-linejoin="round"/>
<path d="M939.961 19.5869L939.059 22.0762" stroke="#132E47" stroke-width="2" stroke-miterlimit="10" stroke-linecap="round" stroke-linejoin="round"/>
<path d="M949.26 39.9384L946.804 39.0258" stroke="#132E47" stroke-width="2" stroke-miterlimit="10" stroke-linecap="round" stroke-linejoin="round"/>
<path d="M922.329 29.9223L919.872 29.0071" stroke="#132E47" stroke-width="2" stroke-miterlimit="10" stroke-linecap="round" stroke-linejoin="round"/>
<path d="M948.772 27.8124L946.397 28.925" stroke="#132E47" stroke-width="2" stroke-miterlimit="10" stroke-linecap="round" stroke-linejoin="round"/>
<path d="M922.735 40.0217L920.36 41.1343" stroke="#132E47" stroke-width="2" stroke-miterlimit="10" stroke-linecap="round" stroke-linejoin="round"/>
<path d="M929.09 22.4876L927.992 20.0817" stroke="#132E47" stroke-width="2" stroke-miterlimit="10" stroke-linecap="round" stroke-linejoin="round"/>
<path d="M939.801 47.3972H929.333V52.5899H939.801V47.3972Z" fill="#E4472E" stroke="#132E47" stroke-width="1.5" stroke-miterlimit="10" stroke-linecap="round" stroke-linejoin="round"/>
<path d="M939.801 52.5898H929.333L934.566 63.8571L939.801 52.5898Z" fill="white" stroke="#132E47" stroke-width="1.5" stroke-miterlimit="10" stroke-linecap="round" stroke-linejoin="round"/>
<path d="M932.061 58.4619L934.566 63.8571L937.073 58.4619H932.061Z" fill="#132E47" stroke="#132E47" stroke-width="1.5" stroke-miterlimit="10" stroke-linecap="round" stroke-linejoin="round"/>
<path d="M932.747 47.455V52.5323" stroke="#132E47" stroke-width="1.5" stroke-miterlimit="10" stroke-linecap="round" stroke-linejoin="round"/>
<path d="M936.387 47.455V52.5323" stroke="#132E47" stroke-width="1.5" stroke-miterlimit="10" stroke-linecap="round" stroke-linejoin="round"/>
</g>
</g>
<path d="M1045.32 468.409C1036.51 465.769 1027.19 465.276 1018.14 466.973C1009.1 468.669 1000.59 472.505 993.327 478.161C986.066 483.817 980.264 491.128 976.406 499.484C972.548 507.839 970.307 515.29 970.71 524.484L1023.08 541.026L1045.32 468.409Z" fill="#C8A0CB"/>
<path d="M43 966L77 875L426 920L410.519 966H43Z" fill="white"/>
<path d="M466.483 602.923L277.542 533.884C241.381 520.67 201.337 539.139 187.911 575.222L79.128 867.59C62.111 913.325 95.9358 962 144.734 962H361.746C391.232 962 417.556 943.523 427.578 915.792L508.291 692.464C521.399 656.196 502.704 616.159 466.483 602.923Z" fill="white" stroke="black"/>
<path d="M114.046 777.926C140.05 787.429 168.764 786.213 193.871 774.546C218.978 762.878 238.422 741.715 247.925 715.711C257.429 689.708 256.213 660.994 244.546 635.887C232.878 610.78 211.715 591.336 185.711 581.832L149.879 679.879L114.046 777.926Z" fill="url(#paint2_linear_3001_3)"/>
<path d="M162.022 919.92C136.605 891.269 139.226 847.439 167.876 822.022C196.527 796.605 240.357 799.226 265.775 827.876C291.192 856.527 288.571 900.358 259.92 925.775C231.269 951.192 187.439 948.571 162.022 919.92ZM243.671 847.485C229.084 831.042 203.928 829.538 187.485 844.125C171.042 858.713 169.538 883.868 184.125 900.311C198.713 916.754 223.868 918.259 240.311 903.671C256.754 889.084 258.259 863.929 243.671 847.485Z" fill="#F8BC17"/>
<path d="M306.658 640.051C308.196 640.585 309.434 641.356 310.372 642.365C311.31 643.374 311.899 644.541 312.137 645.866C312.395 647.182 312.273 648.56 311.772 650.001C311.277 651.428 310.518 652.585 309.496 653.472C308.487 654.364 307.295 654.913 305.92 655.118C304.558 655.329 303.115 655.169 301.591 654.64L296.125 652.741L301.192 638.152L306.658 640.051ZM302.431 651.485C303.775 651.951 304.948 651.947 305.951 651.473C306.955 650.999 307.69 650.089 308.156 648.745C308.623 647.402 308.612 646.226 308.124 645.218C307.636 644.21 306.72 643.472 305.376 643.005L303.692 642.421L300.747 650.9L302.431 651.485ZM317.458 645.805C316.835 645.588 316.385 645.23 316.108 644.73C315.85 644.221 315.815 643.697 316.003 643.156C316.195 642.602 316.548 642.212 317.061 641.987C317.593 641.752 318.17 641.743 318.794 641.96C319.403 642.172 319.837 642.532 320.095 643.041C320.372 643.541 320.414 644.067 320.222 644.622C320.034 645.162 319.674 645.549 319.142 645.784C318.629 646.009 318.068 646.016 317.458 645.805ZM318.806 647.624L314.779 659.22L311.225 657.986L315.253 646.389L318.806 647.624ZM325.845 649.882C326.663 650.166 327.318 650.58 327.813 651.124C328.321 651.673 328.647 652.276 328.792 652.932L329.362 651.29L332.916 652.524L328.895 664.1C328.525 665.167 327.976 666.055 327.248 666.765C326.529 667.493 325.644 667.962 324.593 668.172C323.556 668.386 322.393 668.269 321.105 667.822C319.387 667.225 318.136 666.333 317.354 665.145C316.566 663.971 316.336 662.664 316.665 661.226L320.177 662.446C320.134 662.928 320.277 663.365 320.606 663.759C320.93 664.167 321.397 664.477 322.007 664.688C322.741 664.943 323.398 664.931 323.976 664.65C324.564 664.389 325.019 663.794 325.342 662.865L325.912 661.224C325.378 661.644 324.746 661.921 324.016 662.056C323.291 662.176 322.52 662.095 321.702 661.811C320.746 661.479 319.964 660.936 319.357 660.181C318.754 659.413 318.381 658.499 318.236 657.44C318.111 656.372 318.255 655.242 318.668 654.05C319.082 652.859 319.667 651.889 320.423 651.143C321.193 650.401 322.051 649.923 322.995 649.707C323.939 649.492 324.889 649.55 325.845 649.882ZM327.348 657.088C327.656 656.201 327.65 655.415 327.329 654.729C327.022 654.048 326.515 653.585 325.809 653.339C325.102 653.094 324.411 653.141 323.734 653.48C323.076 653.811 322.593 654.419 322.285 655.306C321.977 656.193 321.974 656.983 322.276 657.678C322.596 658.364 323.11 658.83 323.817 659.075C324.523 659.321 325.208 659.271 325.871 658.927C326.548 658.588 327.04 657.975 327.348 657.088ZM337.693 652.832C337.069 652.616 336.619 652.258 336.342 651.758C336.084 651.249 336.049 650.724 336.237 650.184C336.429 649.63 336.782 649.24 337.295 649.015C337.827 648.78 338.405 648.771 339.028 648.988C339.638 649.199 340.071 649.56 340.329 650.068C340.606 650.568 340.648 651.095 340.456 651.649C340.268 652.19 339.908 652.577 339.377 652.812C338.864 653.037 338.302 653.044 337.693 652.832ZM339.041 654.651L335.013 666.248L331.459 665.013L335.487 653.417L339.041 654.651ZM345.098 666.374L344.052 669.387L342.243 668.759C340.955 668.312 340.059 667.651 339.555 666.777C339.056 665.89 339.054 664.732 339.55 663.305L341.152 658.692L339.739 658.201L340.764 655.25L342.177 655.741L343.159 652.914L346.712 654.149L345.731 656.975L348.058 657.783L347.033 660.734L344.706 659.926L343.089 664.581C342.969 664.928 342.965 665.206 343.079 665.416C343.192 665.626 343.442 665.799 343.83 665.933L345.098 666.374ZM347.345 664.01C347.759 662.819 348.344 661.85 349.1 661.103C349.87 660.361 350.728 659.883 351.672 659.667C352.616 659.452 353.566 659.51 354.522 659.842C355.34 660.126 355.995 660.54 356.49 661.084C356.998 661.633 357.324 662.236 357.469 662.892L358.039 661.25L361.593 662.484L357.565 674.081L354.011 672.846L354.582 671.204C354.048 671.625 353.411 671.893 352.672 672.008C351.947 672.129 351.176 672.048 350.358 671.764C349.416 671.437 348.641 670.896 348.034 670.141C347.431 669.373 347.058 668.459 346.913 667.4C346.788 666.332 346.932 665.202 347.345 664.01ZM356.025 667.048C356.333 666.161 356.327 665.375 356.006 664.689C355.699 664.008 355.192 663.545 354.486 663.299C353.779 663.054 353.088 663.101 352.411 663.44C351.753 663.771 351.27 664.379 350.962 665.266C350.654 666.153 350.651 666.944 350.953 667.638C351.273 668.324 351.787 668.79 352.494 669.035C353.2 669.281 353.885 669.231 354.548 668.887C355.225 668.548 355.717 667.935 356.025 667.048ZM369.031 660.829L363.69 676.208L360.136 674.973L365.477 659.595L369.031 660.829ZM385.224 672.601C384.93 673.446 384.467 674.155 383.833 674.727C383.205 675.285 382.414 675.639 381.461 675.789C380.509 675.94 379.436 675.808 378.245 675.394L376.042 674.629L374.223 679.866L370.669 678.632L375.736 664.043L381.493 666.042C382.657 666.446 383.571 666.989 384.235 667.67C384.899 668.351 385.309 669.114 385.465 669.96C385.622 670.806 385.541 671.687 385.224 672.601ZM378.956 672.474C379.635 672.71 380.196 672.726 380.64 672.523C381.083 672.32 381.405 671.927 381.607 671.345C381.81 670.763 381.8 670.255 381.578 669.821C381.356 669.387 380.906 669.052 380.227 668.816L378.294 668.145L377.024 671.803L378.956 672.474ZM390.548 674.707C391.185 674.214 391.878 673.895 392.626 673.752C393.38 673.594 394.137 673.648 394.899 673.912L393.593 677.674L392.616 677.335C391.73 677.027 390.997 676.99 390.419 677.224C389.846 677.444 389.393 678.032 389.061 678.988L387.192 684.37L383.638 683.136L387.666 671.54L391.219 672.774L390.548 674.707ZM397.748 688.223C396.612 687.829 395.671 687.23 394.925 686.428C394.193 685.63 393.72 684.689 393.506 683.606C393.306 682.527 393.416 681.385 393.834 680.18C394.248 678.988 394.875 678.034 395.714 677.316C396.558 676.584 397.522 676.135 398.604 675.968C399.687 675.8 400.797 675.914 401.933 676.309C403.069 676.703 404.01 677.302 404.756 678.104C405.502 678.907 405.979 679.857 406.188 680.954C406.402 682.037 406.302 683.175 405.888 684.366C405.474 685.558 404.838 686.517 403.98 687.244C403.141 687.961 402.173 688.402 401.076 688.564C399.994 688.731 398.884 688.618 397.748 688.223ZM398.816 685.147C399.495 685.383 400.157 685.333 400.801 684.998C401.459 684.668 401.95 684.039 402.272 683.11C402.594 682.182 402.607 681.387 402.309 680.724C402.025 680.067 401.543 679.62 400.865 679.384C400.172 679.144 399.51 679.193 398.88 679.533C398.254 679.86 397.778 680.494 397.45 681.436C397.128 682.364 397.102 683.155 397.372 683.807C397.656 684.465 398.137 684.912 398.816 685.147ZM407.074 684.755C407.488 683.563 408.073 682.594 408.829 681.848C409.599 681.106 410.456 680.627 411.4 680.412C412.345 680.197 413.295 680.255 414.251 680.587C415.013 680.852 415.65 681.251 416.163 681.787C416.69 682.327 417.039 682.929 417.212 683.595L419.081 678.212L422.635 679.447L417.294 694.825L413.74 693.591L414.317 691.929C413.792 692.367 413.16 692.645 412.421 692.761C411.696 692.881 410.925 692.8 410.108 692.516C409.152 692.184 408.37 691.641 407.762 690.886C407.16 690.118 406.786 689.204 406.642 688.145C406.516 687.076 406.66 685.946 407.074 684.755ZM415.754 687.793C416.062 686.906 416.055 686.12 415.735 685.434C415.428 684.753 414.921 684.29 414.214 684.044C413.508 683.799 412.816 683.846 412.139 684.185C411.481 684.516 410.998 685.124 410.69 686.011C410.382 686.898 410.379 687.688 410.681 688.383C411.002 689.069 411.516 689.535 412.222 689.78C412.929 690.026 413.614 689.976 414.277 689.632C414.953 689.293 415.446 688.68 415.754 687.793ZM435.343 688.099L431.316 699.695L427.762 698.461L428.31 696.882C427.772 697.269 427.136 697.514 426.402 697.616C425.686 697.709 424.955 697.626 424.206 697.366C423.32 697.058 422.604 696.592 422.06 695.969C421.521 695.331 421.194 694.573 421.08 693.695C420.966 692.817 421.084 691.872 421.435 690.861L423.788 684.086L427.321 685.313L425.134 691.61C424.865 692.386 424.856 693.058 425.109 693.627C425.362 694.196 425.827 694.599 426.506 694.834C427.199 695.075 427.821 695.05 428.372 694.76C428.923 694.471 429.333 693.938 429.602 693.162L431.79 686.865L435.343 688.099ZM435.176 694.538C435.594 693.333 436.202 692.364 437 691.632C437.812 690.905 438.738 690.45 439.779 690.269C440.834 690.092 441.93 690.2 443.066 690.595C444.521 691.1 445.601 691.902 446.306 693.001C447.025 694.105 447.296 695.402 447.12 696.894L443.338 695.58C443.327 694.583 442.864 693.925 441.95 693.608C441.299 693.381 440.69 693.457 440.124 693.835C439.563 694.199 439.119 694.852 438.792 695.794C438.464 696.736 438.406 697.531 438.616 698.179C438.83 698.812 439.263 699.242 439.914 699.468C440.829 699.786 441.599 699.556 442.226 698.78L446.008 700.094C445.232 701.346 444.217 702.189 442.964 702.623C441.711 703.058 440.364 703.024 438.923 702.524C437.787 702.129 436.86 701.536 436.141 700.743C435.437 699.955 434.992 699.024 434.806 697.95C434.634 696.881 434.757 695.744 435.176 694.538ZM453.961 704.184L452.915 707.197L451.106 706.569C449.818 706.122 448.922 705.461 448.418 704.587C447.919 703.7 447.917 702.543 448.413 701.116L450.015 696.502L448.602 696.011L449.627 693.06L451.04 693.551L452.022 690.724L455.575 691.959L454.594 694.785L456.921 695.594L455.896 698.545L453.569 697.736L451.952 702.391C451.832 702.738 451.828 703.016 451.942 703.226C452.055 703.436 452.305 703.609 452.693 703.743L453.961 704.184ZM293.534 677.836C295.072 678.371 296.31 679.142 297.249 680.151C298.187 681.16 298.775 682.327 299.014 683.652C299.271 684.968 299.149 686.346 298.649 687.787C298.153 689.214 297.394 690.371 296.372 691.258C295.363 692.15 294.171 692.699 292.796 692.904C291.434 693.114 289.991 692.955 288.467 692.425L283.002 690.527L288.069 675.938L293.534 677.836ZM289.307 689.27C290.651 689.737 291.824 689.733 292.828 689.259C293.831 688.784 294.566 687.875 295.033 686.531C295.499 685.187 295.489 684.011 295 683.003C294.512 681.995 293.596 681.258 292.252 680.791L290.569 680.207L287.624 688.686L289.307 689.27ZM311.111 693.583C310.996 693.915 310.855 694.255 310.688 694.6L302.645 691.807C302.451 692.547 302.487 693.18 302.754 693.708C303.04 694.226 303.48 694.589 304.076 694.796C304.963 695.104 305.709 694.944 306.315 694.316L310.098 695.63C309.639 696.324 309.048 696.887 308.323 697.319C307.613 697.755 306.816 698.014 305.934 698.096C305.052 698.178 304.14 698.055 303.197 697.728C302.061 697.333 301.134 696.74 300.416 695.947C299.698 695.154 299.245 694.22 299.059 693.147C298.873 692.073 298.99 690.933 299.408 689.728C299.827 688.523 300.435 687.554 301.233 686.822C302.044 686.094 302.978 685.642 304.033 685.465C305.088 685.288 306.191 685.399 307.341 685.799C308.463 686.189 309.379 686.771 310.088 687.545C310.797 688.319 311.243 689.227 311.424 690.268C311.62 691.314 311.516 692.419 311.111 693.583ZM307.799 691.385C308.011 690.775 307.972 690.218 307.681 689.713C307.391 689.209 306.934 688.848 306.31 688.632C305.714 688.425 305.149 688.422 304.613 688.624C304.09 688.831 303.67 689.236 303.352 689.84L307.799 691.385ZM315.567 702.024C314.556 701.673 313.715 701.187 313.046 700.566C312.377 699.946 311.917 699.258 311.666 698.503C311.421 697.735 311.4 696.967 311.605 696.2L315.117 697.42C315.019 697.836 315.093 698.226 315.339 698.591C315.585 698.956 315.95 699.223 316.435 699.391C316.878 699.545 317.247 699.58 317.54 699.495C317.852 699.402 318.056 699.217 318.152 698.94C318.268 698.607 318.179 698.304 317.885 698.032C317.597 697.745 317.098 697.37 316.39 696.907C315.626 696.424 315.003 695.983 314.521 695.582C314.044 695.168 313.684 694.663 313.441 694.066C313.202 693.455 313.22 692.755 313.495 691.965C313.726 691.3 314.115 690.76 314.663 690.345C315.23 689.921 315.921 689.672 316.739 689.599C317.57 689.53 318.477 689.667 319.461 690.009C320.916 690.514 321.934 691.271 322.515 692.28C323.11 693.294 323.262 694.419 322.973 695.653L319.69 694.513C319.774 694.092 319.704 693.711 319.481 693.369C319.272 693.033 318.925 692.78 318.44 692.612C318.025 692.467 317.677 692.44 317.398 692.529C317.123 692.605 316.938 692.781 316.841 693.058C316.726 693.39 316.813 693.7 317.101 693.986C317.404 694.278 317.9 694.637 318.591 695.063C319.373 695.583 319.995 696.047 320.459 696.457C320.927 696.852 321.277 697.362 321.511 697.987C321.763 698.602 321.756 699.314 321.491 700.122C321.255 700.801 320.85 701.344 320.274 701.749C319.717 702.146 319.025 702.371 318.199 702.426C317.387 702.485 316.509 702.351 315.567 702.024ZM328.729 692.063C328.106 691.847 327.656 691.488 327.379 690.989C327.121 690.48 327.086 689.955 327.274 689.415C327.466 688.861 327.819 688.471 328.332 688.245C328.864 688.011 329.441 688.002 330.065 688.218C330.674 688.43 331.108 688.79 331.366 689.299C331.643 689.799 331.685 690.326 331.493 690.88C331.305 691.421 330.945 691.808 330.413 692.043C329.9 692.268 329.339 692.275 328.729 692.063ZM330.077 693.882L326.05 705.479L322.496 704.244L326.524 692.648L330.077 693.882ZM337.116 696.141C337.934 696.424 338.589 696.839 339.084 697.383C339.592 697.932 339.918 698.534 340.063 699.19L340.633 697.548L344.187 698.783L340.166 710.358C339.796 711.425 339.247 712.313 338.519 713.023C337.8 713.752 336.915 714.221 335.864 714.43C334.827 714.644 333.664 714.528 332.376 714.08C330.658 713.484 329.407 712.591 328.625 711.403C327.837 710.229 327.607 708.923 327.936 707.485L331.448 708.704C331.405 709.186 331.548 709.624 331.877 710.018C332.201 710.425 332.668 710.735 333.278 710.947C334.012 711.202 334.669 711.189 335.247 710.909C335.835 710.647 336.29 710.052 336.613 709.124L337.183 707.482C336.649 707.902 336.017 708.18 335.287 708.314C334.562 708.435 333.791 708.353 332.973 708.07C332.017 707.737 331.235 707.194 330.628 706.44C330.025 705.672 329.652 704.758 329.507 703.698C329.382 702.63 329.526 701.5 329.939 700.309C330.353 699.117 330.938 698.148 331.694 697.401C332.464 696.66 333.322 696.181 334.266 695.966C335.21 695.75 336.16 695.809 337.116 696.141ZM338.619 703.347C338.927 702.46 338.921 701.674 338.6 700.988C338.293 700.307 337.786 699.843 337.08 699.598C336.373 699.353 335.682 699.4 335.005 699.739C334.347 700.069 333.864 700.678 333.556 701.565C333.248 702.451 333.245 703.242 333.547 703.937C333.867 704.623 334.381 705.088 335.088 705.334C335.794 705.579 336.479 705.53 337.142 705.186C337.819 704.846 338.311 704.233 338.619 703.347ZM353.867 702.005C355.225 702.477 356.152 703.295 356.647 704.461C357.161 705.618 357.151 706.965 356.617 708.503L354.264 715.278L350.731 714.051L352.918 707.754C353.188 706.978 353.196 706.306 352.944 705.737C352.691 705.168 352.225 704.765 351.546 704.529C350.867 704.294 350.253 704.321 349.702 704.611C349.151 704.901 348.74 705.433 348.471 706.209L346.284 712.506L342.73 711.272L346.758 699.676L350.312 700.91L349.777 702.448C350.316 702.06 350.94 701.827 351.651 701.748C352.366 701.655 353.105 701.74 353.867 702.005Z" fill="#353535"/>
<path d="M269.431 730.791L272.761 731.948L272.308 733.251L267.363 731.534L270.784 721.686L272.399 722.247L269.431 730.791ZM277.001 735.024C276.265 734.768 275.656 734.372 275.176 733.834C274.699 733.288 274.395 732.653 274.265 731.93C274.138 731.198 274.214 730.43 274.493 729.628C274.769 728.834 275.188 728.191 275.751 727.698C276.314 727.206 276.955 726.899 277.674 726.778C278.394 726.658 279.126 726.727 279.873 726.986C280.619 727.245 281.237 727.645 281.727 728.186C282.216 728.727 282.529 729.365 282.666 730.1C282.802 730.835 282.732 731.6 282.457 732.393C282.181 733.187 281.757 733.828 281.185 734.318C280.613 734.807 279.956 735.113 279.214 735.237C278.485 735.354 277.748 735.283 277.001 735.024ZM277.489 733.621C277.904 733.766 278.326 733.801 278.754 733.727C279.191 733.657 279.592 733.463 279.957 733.145C280.321 732.827 280.602 732.384 280.799 731.818C280.996 731.251 281.053 730.736 280.97 730.273C280.89 729.801 280.706 729.403 280.416 729.08C280.126 728.757 279.773 728.524 279.357 728.379C278.941 728.235 278.52 728.199 278.092 728.273C277.673 728.35 277.291 728.551 276.946 728.876C276.603 729.191 276.334 729.632 276.137 730.198C275.845 731.039 275.831 731.765 276.095 732.375C276.372 732.98 276.837 733.395 277.489 733.621ZM286.628 730.746C287.002 730.431 287.421 730.232 287.884 730.15C288.359 730.061 288.866 730.11 289.404 730.297L288.824 731.969L288.413 731.826C287.78 731.606 287.242 731.6 286.8 731.806C286.367 732.016 286.013 732.517 285.738 733.311L284.311 737.42L282.695 736.859L285.407 729.051L287.022 729.612L286.628 730.746ZM296.711 737.138C296.61 737.431 296.499 737.689 296.379 737.912L290.414 735.84C290.244 736.48 290.302 737.061 290.586 737.583C290.871 738.105 291.315 738.471 291.92 738.681C292.789 738.983 293.529 738.833 294.141 738.23L295.884 738.835C295.398 739.471 294.763 739.912 293.979 740.159C293.207 740.399 292.364 740.36 291.447 740.041C290.701 739.782 290.088 739.384 289.607 738.847C289.14 738.303 288.841 737.67 288.711 736.947C288.594 736.219 288.674 735.453 288.953 734.65C289.232 733.847 289.637 733.199 290.168 732.706C290.712 732.207 291.334 731.893 292.035 731.766C292.745 731.642 293.482 731.713 294.248 731.979C294.984 732.235 295.585 732.623 296.05 733.145C296.514 733.666 296.806 734.275 296.923 734.973C297.045 735.66 296.974 736.382 296.711 737.138ZM295.202 736.042C295.4 735.444 295.353 734.893 295.062 734.389C294.771 733.886 294.318 733.528 293.704 733.315C293.147 733.121 292.608 733.135 292.086 733.356C291.568 733.568 291.166 733.963 290.881 734.541L295.202 736.042ZM309.086 737.133C309.7 737.346 310.203 737.664 310.597 738.086C310.999 738.512 311.251 739.022 311.351 739.618C311.46 740.217 311.392 740.871 311.146 741.58L309.546 746.185L307.945 745.629L309.461 741.264C309.704 740.565 309.714 739.971 309.493 739.481C309.275 738.982 308.863 738.627 308.259 738.417C307.654 738.207 307.107 738.229 306.616 738.482C306.139 738.729 305.779 739.202 305.536 739.901L304.02 744.265L302.419 743.709L303.935 739.345C304.178 738.646 304.188 738.052 303.967 737.562C303.748 737.062 303.337 736.708 302.732 736.498C302.128 736.288 301.58 736.309 301.09 736.563C300.613 736.81 300.253 737.283 300.01 737.982L298.494 742.346L296.879 741.785L299.59 733.977L301.206 734.539L300.896 735.431C301.272 735.202 301.694 735.068 302.163 735.03C302.631 734.991 303.097 735.052 303.56 735.213C304.183 735.43 304.695 735.756 305.094 736.191C305.493 736.626 305.738 737.14 305.829 737.732C306.229 737.342 306.727 737.097 307.323 736.997C307.922 736.887 308.51 736.932 309.086 737.133ZM319.175 739.621C318.883 739.519 318.671 739.334 318.542 739.067C318.413 738.8 318.399 738.52 318.5 738.227C318.602 737.934 318.787 737.723 319.054 737.593C319.321 737.464 319.601 737.45 319.894 737.552C320.177 737.65 320.384 737.833 320.513 738.1C320.643 738.368 320.657 738.648 320.555 738.941C320.453 739.233 320.269 739.445 320.001 739.574C319.734 739.704 319.459 739.719 319.175 739.621ZM319.61 740.931L316.898 748.738L315.283 748.177L317.994 740.37L319.61 740.931ZM322.947 743.376C323.346 743.112 323.824 742.939 324.382 742.858C324.939 742.776 325.516 742.839 326.111 743.046C326.791 743.282 327.351 743.667 327.79 744.2C328.242 744.728 328.523 745.35 328.635 746.066C328.746 746.782 328.665 747.532 328.393 748.316C328.121 749.1 327.715 749.748 327.178 750.26C326.643 750.763 326.032 751.09 325.344 751.243C324.668 751.389 323.991 751.344 323.31 751.108C322.715 750.901 322.227 750.6 321.846 750.203C321.469 749.796 321.196 749.363 321.028 748.902L319.345 753.748L317.729 753.187L321.731 741.667L323.346 742.228L322.947 743.376ZM326.749 747.745C326.936 747.207 326.984 746.705 326.891 746.238C326.812 745.766 326.622 745.367 326.323 745.041C326.036 744.708 325.685 744.47 325.269 744.325C324.863 744.184 324.44 744.154 323.999 744.234C323.568 744.317 323.17 744.517 322.806 744.835C322.451 745.157 322.179 745.586 321.992 746.125C321.805 746.663 321.75 747.173 321.826 747.655C321.915 748.131 322.103 748.535 322.39 748.867C322.686 749.203 323.037 749.441 323.443 749.582C323.859 749.727 324.282 749.757 324.714 749.674C325.157 749.585 325.559 749.375 325.917 749.044C326.285 748.717 326.562 748.284 326.749 747.745ZM331.412 753.922C330.798 753.709 330.283 753.408 329.867 753.02C329.464 752.626 329.186 752.191 329.034 751.715C328.885 751.229 328.884 750.747 329.029 750.268L330.701 750.848C330.614 751.189 330.673 751.522 330.878 751.847C331.095 752.166 331.421 752.401 331.856 752.552C332.309 752.709 332.688 752.746 332.993 752.661C333.31 752.57 333.517 752.388 333.612 752.114C333.714 751.821 333.647 751.554 333.413 751.314C333.188 751.077 332.803 750.769 332.258 750.389C331.728 750.025 331.305 749.703 330.989 749.424C330.673 749.145 330.432 748.802 330.267 748.395C330.11 747.992 330.121 747.535 330.298 747.025C330.442 746.609 330.696 746.274 331.06 746.019C331.427 745.755 331.872 745.602 332.394 745.561C332.926 745.524 333.489 745.608 334.084 745.815C334.972 746.123 335.607 746.598 335.988 747.238C336.382 747.873 336.463 748.584 336.232 749.371L334.616 748.81C334.709 748.451 334.664 748.123 334.481 747.827C334.299 747.53 333.99 747.307 333.555 747.156C333.13 747.008 332.776 746.975 332.494 747.057C332.211 747.139 332.024 747.312 331.932 747.576C331.86 747.784 331.875 747.985 331.977 748.179C332.079 748.374 332.224 748.551 332.412 748.711C332.603 748.863 332.889 749.073 333.272 749.344C333.786 749.692 334.195 750.008 334.498 750.294C334.814 750.573 335.052 750.909 335.211 751.303C335.371 751.698 335.368 752.147 335.204 752.651C335.05 753.095 334.789 753.449 334.422 753.713C334.055 753.977 333.61 754.13 333.088 754.171C332.575 754.215 332.016 754.132 331.412 753.922ZM345.974 750.087L343.262 757.895L341.647 757.334L341.966 756.413C341.6 756.645 341.176 756.784 340.695 756.828C340.226 756.867 339.76 756.806 339.298 756.645C338.684 756.432 338.175 756.112 337.773 755.687C337.379 755.264 337.128 754.753 337.019 754.154C336.918 753.558 336.991 752.906 337.238 752.198L338.832 747.607L340.433 748.163L338.922 752.513C338.68 753.212 338.667 753.811 338.886 754.311C339.107 754.8 339.52 755.15 340.125 755.36C340.729 755.57 341.27 755.552 341.748 755.305C342.238 755.051 342.605 754.575 342.847 753.876L344.358 749.526L345.974 750.087ZM357.6 753.983C358.214 754.196 358.718 754.514 359.111 754.936C359.514 755.362 359.765 755.872 359.865 756.468C359.975 757.067 359.906 757.721 359.66 758.43L358.061 763.035L356.46 762.479L357.976 758.114C358.218 757.415 358.229 756.821 358.007 756.331C357.789 755.832 357.378 755.477 356.773 755.267C356.169 755.057 355.621 755.079 355.131 755.332C354.653 755.579 354.293 756.052 354.051 756.751L352.535 761.115L350.934 760.559L352.449 756.195C352.692 755.496 352.703 754.902 352.481 754.412C352.263 753.912 351.852 753.558 351.247 753.348C350.642 753.138 350.095 753.16 349.605 753.413C349.127 753.66 348.767 754.133 348.524 754.832L347.009 759.196L345.393 758.635L348.105 750.828L349.72 751.389L349.41 752.281C349.786 752.052 350.209 751.918 350.677 751.88C351.146 751.841 351.611 751.902 352.074 752.063C352.698 752.28 353.209 752.606 353.608 753.041C354.008 753.476 354.253 753.99 354.343 754.582C354.744 754.192 355.242 753.947 355.837 753.847C356.437 753.737 357.024 753.782 357.6 753.983ZM364.627 760.901C364.899 760.117 365.301 759.478 365.832 758.985C366.373 758.496 366.979 758.182 367.651 758.045C368.336 757.902 369.023 757.95 369.713 758.19C370.223 758.367 370.684 758.654 371.097 759.051C371.522 759.442 371.817 759.873 371.982 760.343L373.291 756.574L374.921 757.14L371.279 767.626L369.649 767.06L370.058 765.884C369.662 766.17 369.185 766.353 368.628 766.435C368.08 766.52 367.503 766.457 366.899 766.247C366.218 766.011 365.654 765.624 365.205 765.087C364.769 764.544 364.493 763.908 364.375 763.179C364.271 762.444 364.355 761.685 364.627 760.901ZM371.008 763.149C371.195 762.61 371.244 762.103 371.155 761.628C371.075 761.156 370.892 760.753 370.605 760.421C370.319 760.088 369.967 759.85 369.552 759.705C369.136 759.561 368.713 759.531 368.282 759.614C367.854 759.687 367.457 759.883 367.093 760.201C366.741 760.513 366.472 760.938 366.285 761.477C366.098 762.015 366.042 762.525 366.119 763.007C366.204 763.492 366.389 763.905 366.672 764.247C366.968 764.583 367.32 764.821 367.726 764.962C368.142 765.107 368.565 765.137 368.996 765.054C369.427 764.971 369.82 764.769 370.175 764.448C370.543 764.12 370.821 763.687 371.008 763.149ZM376.743 769.666C376.006 769.41 375.397 769.014 374.917 768.476C374.44 767.93 374.137 767.295 374.006 766.572C373.88 765.84 373.956 765.072 374.235 764.27C374.51 763.476 374.929 762.833 375.492 762.34C376.055 761.848 376.696 761.541 377.415 761.42C378.135 761.3 378.868 761.369 379.614 761.628C380.36 761.887 380.978 762.287 381.468 762.828C381.958 763.369 382.271 764.007 382.407 764.742C382.543 765.477 382.473 766.242 382.198 767.035C381.922 767.829 381.498 768.47 380.926 768.96C380.354 769.449 379.697 769.755 378.955 769.879C378.227 769.996 377.489 769.925 376.743 769.666ZM377.23 768.263C377.646 768.408 378.067 768.443 378.495 768.369C378.933 768.299 379.333 768.105 379.698 767.787C380.062 767.469 380.343 767.026 380.54 766.46C380.737 765.893 380.794 765.378 380.711 764.915C380.632 764.443 380.447 764.045 380.157 763.722C379.867 763.399 379.514 763.166 379.098 763.021C378.683 762.877 378.261 762.842 377.833 762.915C377.415 762.992 377.033 763.193 376.687 763.518C376.345 763.833 376.075 764.274 375.878 764.84C375.586 765.681 375.572 766.407 375.837 767.017C376.114 767.622 376.578 768.037 377.23 768.263ZM387.694 761.576L384.052 772.062L382.436 771.501L386.078 761.015L387.694 761.576ZM389.515 774.102C388.778 773.846 388.169 773.45 387.689 772.912C387.212 772.366 386.909 771.731 386.779 771.008C386.652 770.276 386.728 769.508 387.007 768.706C387.282 767.912 387.701 767.269 388.264 766.776C388.827 766.284 389.468 765.977 390.187 765.856C390.907 765.736 391.64 765.805 392.386 766.064C393.132 766.323 393.75 766.723 394.24 767.264C394.73 767.805 395.043 768.443 395.179 769.178C395.315 769.913 395.246 770.678 394.97 771.471C394.694 772.265 394.27 772.906 393.698 773.396C393.126 773.885 392.469 774.191 391.728 774.315C390.999 774.432 390.261 774.361 389.515 774.102ZM390.002 772.699C390.418 772.844 390.839 772.879 391.267 772.805C391.705 772.735 392.106 772.541 392.47 772.223C392.835 771.905 393.115 771.462 393.312 770.896C393.509 770.329 393.566 769.814 393.483 769.351C393.404 768.879 393.219 768.481 392.929 768.158C392.639 767.835 392.286 767.602 391.87 767.457C391.455 767.313 391.033 767.278 390.605 767.351C390.187 767.428 389.805 767.629 389.459 767.954C389.117 768.269 388.847 768.71 388.65 769.276C388.358 770.117 388.344 770.843 388.609 771.453C388.886 772.058 389.35 772.473 390.002 772.699ZM399.142 769.824C399.516 769.509 399.934 769.31 400.397 769.228C400.872 769.139 401.379 769.188 401.918 769.375L401.337 771.047L400.926 770.904C400.293 770.684 399.756 770.678 399.314 770.884C398.881 771.094 398.527 771.595 398.251 772.389L396.824 776.498L395.209 775.937L397.92 768.129L399.536 768.69L399.142 769.824ZM407.117 780.216C406.503 780.003 405.988 779.702 405.572 779.314C405.169 778.92 404.892 778.485 404.74 778.009C404.591 777.523 404.589 777.041 404.734 776.562L406.406 777.142C406.32 777.483 406.379 777.816 406.583 778.141C406.801 778.46 407.127 778.695 407.561 778.846C408.015 779.003 408.394 779.04 408.698 778.955C409.016 778.864 409.222 778.681 409.317 778.408C409.419 778.115 409.353 777.848 409.118 777.608C408.894 777.371 408.509 777.063 407.963 776.683C407.433 776.319 407.01 775.997 406.694 775.718C406.378 775.439 406.138 775.096 405.972 774.689C405.816 774.286 405.826 773.829 406.003 773.319C406.148 772.903 406.402 772.568 406.766 772.313C407.133 772.049 407.577 771.896 408.1 771.855C408.631 771.818 409.195 771.902 409.79 772.109C410.678 772.417 411.312 772.892 411.693 773.532C412.087 774.167 412.168 774.878 411.937 775.665L410.322 775.104C410.415 774.745 410.37 774.417 410.187 774.121C410.004 773.824 409.695 773.6 409.261 773.45C408.836 773.302 408.482 773.269 408.199 773.351C407.917 773.433 407.73 773.606 407.638 773.87C407.566 774.078 407.581 774.279 407.682 774.473C407.784 774.668 407.929 774.845 408.117 775.005C408.308 775.156 408.595 775.367 408.977 775.638C409.491 775.986 409.9 776.302 410.203 776.588C410.519 776.867 410.757 777.203 410.917 777.597C411.076 777.992 411.074 778.441 410.909 778.945C410.755 779.389 410.494 779.743 410.127 780.007C409.76 780.271 409.316 780.424 408.793 780.465C408.28 780.509 407.722 780.426 407.117 780.216ZM415.789 773.176C415.497 773.075 415.285 772.89 415.156 772.623C415.026 772.356 415.013 772.076 415.114 771.783C415.216 771.49 415.401 771.279 415.668 771.149C415.935 771.02 416.215 771.006 416.508 771.108C416.791 771.206 416.998 771.389 417.127 771.656C417.257 771.924 417.271 772.204 417.169 772.496C417.067 772.789 416.883 773 416.615 773.13C416.348 773.259 416.073 773.275 415.789 773.176ZM416.224 774.486L413.512 782.294L411.897 781.733L414.608 773.925L416.224 774.486ZM419.771 777.195L418.27 781.517C418.169 781.81 418.161 782.045 418.247 782.224C418.346 782.396 418.561 782.539 418.892 782.654L419.884 782.998L419.416 784.345L418.141 783.902C417.413 783.649 416.915 783.285 416.646 782.811C416.377 782.336 416.375 781.716 416.641 780.951L418.142 776.629L417.221 776.31L417.679 774.992L418.6 775.312L419.274 773.37L420.903 773.936L420.229 775.878L422.128 776.537L421.67 777.855L419.771 777.195ZM259.334 752.913C259.607 752.129 260.008 751.49 260.54 750.997C261.08 750.508 261.687 750.194 262.359 750.057C263.044 749.914 263.726 749.96 264.406 750.197C265.02 750.41 265.511 750.718 265.879 751.121C266.26 751.518 266.525 751.944 266.675 752.398L267.068 751.264L268.698 751.83L265.986 759.638L264.357 759.072L264.76 757.91C264.358 758.183 263.879 758.36 263.321 758.442C262.763 758.524 262.182 758.459 261.578 758.249C260.907 758.016 260.352 757.633 259.913 757.099C259.477 756.556 259.2 755.92 259.083 755.192C258.978 754.457 259.062 753.697 259.334 752.913ZM265.715 755.161C265.902 754.622 265.951 754.115 265.862 753.64C265.783 753.168 265.6 752.765 265.313 752.433C265.026 752.1 264.675 751.862 264.259 751.718C263.843 751.573 263.42 751.543 262.989 751.626C262.561 751.699 262.165 751.895 261.8 752.213C261.449 752.525 261.179 752.95 260.992 753.489C260.805 754.027 260.75 754.537 260.826 755.019C260.912 755.504 261.096 755.917 261.38 756.259C261.676 756.595 262.027 756.833 262.433 756.974C262.849 757.119 263.272 757.149 263.703 757.066C264.135 756.983 264.528 756.781 264.883 756.46C265.251 756.132 265.528 755.699 265.715 755.161ZM280.315 755.722C280.929 755.935 281.433 756.253 281.826 756.676C282.228 757.101 282.48 757.612 282.58 758.208C282.689 758.807 282.621 759.461 282.375 760.169L280.776 764.774L279.174 764.218L280.69 759.854C280.933 759.155 280.944 758.56 280.722 758.071C280.504 757.571 280.092 757.217 279.488 757.007C278.883 756.797 278.336 756.818 277.846 757.072C277.368 757.319 277.008 757.792 276.765 758.491L275.249 762.855L273.648 762.299L275.164 757.935C275.407 757.235 275.417 756.641 275.196 756.151C274.978 755.652 274.566 755.297 273.962 755.087C273.357 754.877 272.81 754.899 272.319 755.152C271.842 755.399 271.482 755.872 271.239 756.571L269.723 760.936L268.108 760.374L270.82 752.567L272.435 753.128L272.125 754.021C272.501 753.791 272.923 753.658 273.392 753.619C273.86 753.581 274.326 753.642 274.789 753.803C275.412 754.019 275.924 754.345 276.323 754.78C276.722 755.215 276.967 755.729 277.058 756.322C277.458 755.931 277.956 755.686 278.552 755.586C279.151 755.477 279.739 755.522 280.315 755.722ZM291.409 763.878C291.307 764.171 291.197 764.429 291.077 764.652L285.111 762.58C284.942 763.22 285 763.801 285.284 764.323C285.568 764.846 286.013 765.212 286.617 765.422C287.487 765.724 288.227 765.573 288.838 764.97L290.581 765.576C290.096 766.212 289.461 766.653 288.677 766.899C287.905 767.139 287.061 767.1 286.145 766.782C285.399 766.523 284.785 766.125 284.305 765.587C283.838 765.044 283.539 764.411 283.409 763.688C283.291 762.959 283.372 762.193 283.651 761.39C283.93 760.587 284.335 759.939 284.866 759.446C285.41 758.947 286.032 758.634 286.733 758.507C287.443 758.383 288.18 758.454 288.945 758.719C289.682 758.975 290.283 759.364 290.748 759.885C291.212 760.407 291.503 761.016 291.621 761.713C291.742 762.401 291.672 763.123 291.409 763.878ZM289.9 762.783C290.097 762.184 290.05 761.633 289.759 761.13C289.468 760.627 289.016 760.268 288.402 760.055C287.845 759.862 287.305 759.875 286.784 760.097C286.266 760.308 285.864 760.703 285.578 761.282L289.9 762.783ZM295.715 762.69L294.214 767.012C294.112 767.305 294.105 767.541 294.191 767.719C294.29 767.891 294.505 768.034 294.835 768.149L295.827 768.493L295.36 769.84L294.084 769.397C293.357 769.144 292.859 768.78 292.59 768.306C292.32 767.831 292.319 767.211 292.584 766.446L294.085 762.124L293.164 761.805L293.622 760.487L294.543 760.807L295.217 758.865L296.847 759.431L296.173 761.373L298.071 762.032L297.614 763.35L295.715 762.69ZM299.294 769.031L296.221 772.346L295.173 771.982L297.537 768.42L299.294 769.031ZM304.532 768.643C304.811 767.84 305.216 767.192 305.747 766.699C306.291 766.199 306.908 765.885 307.599 765.754C308.29 765.624 309.009 765.688 309.755 765.947C310.7 766.275 311.401 766.773 311.857 767.439C312.326 768.1 312.525 768.884 312.454 769.79L310.711 769.185C310.704 768.748 310.582 768.367 310.346 768.042C310.11 767.716 309.755 767.472 309.283 767.308C308.622 767.078 308.011 767.13 307.45 767.465C306.902 767.793 306.482 768.378 306.19 769.218C305.898 770.059 305.863 770.783 306.087 771.39C306.319 772 306.766 772.42 307.428 772.649C308.363 772.974 309.124 772.778 309.712 772.061L311.455 772.667C310.952 773.382 310.308 773.867 309.52 774.123C308.736 774.369 307.881 774.331 306.955 774.01C306.209 773.751 305.605 773.356 305.144 772.825C304.685 772.285 304.396 771.655 304.275 770.935C304.167 770.21 304.253 769.446 304.532 768.643ZM315.551 776.995C314.814 776.739 314.205 776.343 313.725 775.805C313.248 775.259 312.944 774.624 312.814 773.901C312.687 773.169 312.763 772.401 313.042 771.598C313.318 770.805 313.737 770.162 314.3 769.669C314.863 769.177 315.504 768.87 316.223 768.749C316.943 768.629 317.675 768.698 318.422 768.957C319.168 769.216 319.786 769.616 320.276 770.157C320.765 770.697 321.078 771.336 321.215 772.071C321.351 772.806 321.281 773.571 321.006 774.364C320.73 775.158 320.306 775.799 319.734 776.289C319.162 776.778 318.505 777.084 317.763 777.208C317.034 777.325 316.297 777.254 315.551 776.995ZM316.038 775.592C316.453 775.737 316.875 775.772 317.303 775.698C317.74 775.628 318.141 775.434 318.506 775.116C318.87 774.798 319.151 774.355 319.348 773.788C319.545 773.222 319.602 772.707 319.519 772.244C319.439 771.772 319.255 771.374 318.965 771.051C318.675 770.728 318.322 770.495 317.906 770.35C317.49 770.206 317.069 770.17 316.641 770.244C316.222 770.321 315.84 770.522 315.495 770.846C315.152 771.162 314.883 771.603 314.686 772.169C314.394 773.01 314.38 773.736 314.644 774.346C314.922 774.951 315.386 775.366 316.038 775.592ZM327.939 772.263C328.553 772.476 329.057 772.794 329.45 773.216C329.853 773.642 330.104 774.153 330.204 774.749C330.304 775.344 330.231 775.996 329.985 776.705L328.386 781.31L326.785 780.754L328.3 776.39C328.543 775.691 328.554 775.096 328.332 774.606C328.114 774.107 327.702 773.753 327.098 773.543C326.493 773.333 325.946 773.354 325.456 773.607C324.978 773.854 324.618 774.327 324.375 775.027L322.86 779.391L321.244 778.83L323.956 771.022L325.571 771.583L325.261 772.476C325.637 772.247 326.06 772.113 326.528 772.074C327.006 772.039 327.476 772.102 327.939 772.263ZM333.236 783.138C332.622 782.924 332.107 782.624 331.691 782.236C331.288 781.842 331.011 781.407 330.858 780.93C330.71 780.445 330.708 779.962 330.853 779.483L332.525 780.064C332.438 780.405 332.497 780.737 332.702 781.063C332.919 781.382 333.245 781.617 333.68 781.767C334.133 781.925 334.512 781.961 334.817 781.877C335.134 781.786 335.341 781.603 335.436 781.329C335.538 781.036 335.471 780.77 335.237 780.53C335.012 780.293 334.627 779.985 334.082 779.605C333.552 779.241 333.129 778.919 332.813 778.64C332.497 778.361 332.256 778.018 332.091 777.611C331.934 777.207 331.945 776.75 332.122 776.24C332.266 775.825 332.521 775.49 332.884 775.235C333.251 774.971 333.696 774.818 334.218 774.777C334.75 774.739 335.313 774.824 335.909 775.031C336.797 775.339 337.431 775.814 337.812 776.454C338.206 777.088 338.287 777.799 338.056 778.587L336.44 778.026C336.533 777.667 336.488 777.339 336.306 777.042C336.123 776.746 335.814 776.522 335.379 776.371C334.954 776.224 334.601 776.191 334.318 776.273C334.036 776.354 333.848 776.528 333.757 776.792C333.684 777 333.699 777.201 333.801 777.395C333.903 777.589 334.048 777.767 334.236 777.927C334.427 778.078 334.713 778.289 335.096 778.559C335.61 778.907 336.019 779.224 336.322 779.509C336.638 779.788 336.876 780.125 337.035 780.519C337.195 780.913 337.192 781.362 337.028 781.866C336.874 782.31 336.613 782.664 336.246 782.929C335.879 783.193 335.434 783.345 334.912 783.386C334.399 783.43 333.84 783.348 333.236 783.138ZM346.593 783.045C346.492 783.338 346.381 783.596 346.261 783.819L340.296 781.747C340.126 782.387 340.184 782.968 340.468 783.49C340.753 784.012 341.197 784.378 341.802 784.588C342.671 784.89 343.411 784.74 344.023 784.137L345.766 784.742C345.28 785.378 344.645 785.819 343.861 786.066C343.089 786.306 342.246 786.267 341.329 785.949C340.583 785.689 339.97 785.291 339.489 784.754C339.022 784.21 338.723 783.577 338.593 782.855C338.476 782.126 338.556 781.36 338.835 780.557C339.114 779.754 339.519 779.106 340.05 778.613C340.594 778.114 341.216 777.8 341.917 777.673C342.627 777.549 343.364 777.62 344.13 777.886C344.866 778.142 345.467 778.531 345.932 779.052C346.396 779.573 346.688 780.182 346.805 780.88C346.927 781.567 346.856 782.289 346.593 783.045ZM345.084 781.949C345.282 781.351 345.235 780.8 344.944 780.297C344.653 779.793 344.2 779.435 343.586 779.222C343.029 779.028 342.49 779.042 341.968 779.263C341.45 779.475 341.048 779.87 340.763 780.448L345.084 781.949ZM347.581 783.594C347.859 782.791 348.264 782.143 348.796 781.65C349.339 781.151 349.957 780.836 350.648 780.706C351.339 780.575 352.058 780.64 352.804 780.899C353.749 781.227 354.449 781.724 354.906 782.391C355.375 783.052 355.574 783.835 355.503 784.742L353.76 784.137C353.752 783.7 353.631 783.319 353.394 782.994C353.158 782.668 352.804 782.423 352.332 782.259C351.67 782.029 351.059 782.082 350.499 782.416C349.95 782.745 349.53 783.329 349.238 784.17C348.946 785.011 348.912 785.735 349.135 786.341C349.368 786.952 349.815 787.371 350.476 787.601C351.411 787.926 352.173 787.73 352.761 787.013L354.503 787.618C354.001 788.333 353.356 788.818 352.569 789.074C351.785 789.321 350.93 789.283 350.004 788.961C349.257 788.702 348.654 788.307 348.192 787.776C347.734 787.236 347.445 786.606 347.324 785.887C347.216 785.161 347.302 784.397 347.581 783.594ZM359.396 784.808L357.895 789.13C357.793 789.422 357.785 789.658 357.871 789.836C357.97 790.008 358.185 790.152 358.516 790.266L359.508 790.611L359.04 791.957L357.765 791.514C357.038 791.261 356.539 790.898 356.27 790.423C356.001 789.949 355.999 789.329 356.265 788.564L357.766 784.242L356.845 783.922L357.303 782.604L358.224 782.924L358.898 780.983L360.527 781.549L359.853 783.49L361.752 784.15L361.294 785.467L359.396 784.808ZM369.107 790.864C369.005 791.157 368.895 791.415 368.775 791.638L362.809 789.566C362.64 790.206 362.698 790.787 362.982 791.309C363.266 791.832 363.711 792.198 364.315 792.408C365.185 792.71 365.925 792.559 366.536 791.956L368.279 792.562C367.794 793.198 367.159 793.639 366.375 793.885C365.603 794.125 364.759 794.086 363.843 793.768C363.097 793.509 362.483 793.111 362.003 792.573C361.536 792.03 361.237 791.397 361.107 790.674C360.989 789.945 361.07 789.179 361.349 788.376C361.628 787.573 362.033 786.925 362.564 786.432C363.108 785.933 363.73 785.62 364.431 785.493C365.141 785.369 365.878 785.44 366.643 785.705C367.38 785.961 367.981 786.35 368.446 786.871C368.91 787.393 369.201 788.002 369.319 788.699C369.44 789.387 369.37 790.109 369.107 790.864ZM367.598 789.769C367.795 789.17 367.748 788.619 367.457 788.116C367.166 787.613 366.714 787.254 366.1 787.041C365.543 786.848 365.003 786.861 364.482 787.083C363.964 787.294 363.562 787.689 363.276 788.268L367.598 789.769ZM373.413 789.676L371.912 793.998C371.81 794.291 371.803 794.526 371.889 794.705C371.988 794.877 372.203 795.02 372.533 795.135L373.525 795.479L373.058 796.826L371.782 796.383C371.055 796.13 370.557 795.766 370.288 795.292C370.018 794.817 370.017 794.197 370.282 793.432L371.783 789.11L370.862 788.791L371.32 787.473L372.241 787.793L372.915 785.851L374.545 786.417L373.871 788.359L375.769 789.018L375.312 790.336L373.413 789.676ZM384.329 791.991L381.617 799.798L380.002 799.237L380.322 798.316C379.955 798.549 379.531 798.688 379.05 798.732C378.581 798.771 378.116 798.709 377.653 798.549C377.039 798.335 376.531 798.016 376.128 797.59C375.735 797.168 375.483 796.657 375.374 796.058C375.274 795.462 375.347 794.81 375.593 794.102L377.187 789.511L378.789 790.067L377.278 794.417C377.035 795.116 377.023 795.715 377.241 796.214C377.462 796.704 377.876 797.054 378.48 797.264C379.085 797.474 379.626 797.455 380.103 797.208C380.593 796.955 380.96 796.479 381.203 795.78L382.714 791.43L384.329 791.991ZM387.682 794.426C388.056 794.111 388.474 793.912 388.937 793.83C389.412 793.741 389.919 793.79 390.458 793.977L389.877 795.649L389.466 795.506C388.833 795.286 388.296 795.279 387.854 795.486C387.421 795.695 387.067 796.197 386.791 796.991L385.364 801.1L383.749 800.539L386.46 792.731L388.076 793.292L387.682 794.426ZM250.476 778.418C250.748 777.634 251.15 776.996 251.681 776.503C252.222 776.013 252.828 775.7 253.5 775.563C254.185 775.419 254.868 775.466 255.548 775.702C256.162 775.915 256.653 776.223 257.021 776.627C257.402 777.024 257.667 777.449 257.816 777.903L258.21 776.77L259.839 777.336L257.128 785.143L255.498 784.577L255.902 783.415C255.5 783.688 255.02 783.866 254.462 783.947C253.905 784.029 253.324 783.965 252.719 783.755C252.048 783.522 251.493 783.139 251.054 782.605C250.618 782.062 250.342 781.426 250.224 780.697C250.12 779.962 250.203 779.202 250.476 778.418ZM256.856 780.666C257.043 780.128 257.093 779.621 257.004 779.145C256.924 778.673 256.741 778.271 256.454 777.938C256.167 777.606 255.816 777.367 255.401 777.223C254.985 777.079 254.562 777.048 254.13 777.131C253.703 777.205 253.306 777.401 252.942 777.719C252.59 778.031 252.321 778.456 252.134 778.994C251.947 779.533 251.891 780.043 251.967 780.524C252.053 781.009 252.238 781.423 252.521 781.765C252.817 782.1 253.169 782.339 253.575 782.48C253.99 782.624 254.414 782.655 254.845 782.572C255.276 782.489 255.669 782.286 256.024 781.965C256.392 781.638 256.669 781.205 256.856 780.666ZM260.079 781.754C260.351 780.97 260.753 780.331 261.284 779.838C261.825 779.348 262.431 779.035 263.103 778.898C263.788 778.755 264.476 778.803 265.165 779.042C265.675 779.22 266.137 779.507 266.549 779.904C266.974 780.295 267.269 780.726 267.434 781.196L268.743 777.427L270.373 777.993L266.731 788.478L265.101 787.912L265.51 786.736C265.114 787.022 264.638 787.206 264.08 787.288C263.532 787.373 262.955 787.31 262.351 787.1C261.671 786.864 261.106 786.477 260.658 785.94C260.222 785.397 259.945 784.761 259.828 784.032C259.723 783.297 259.807 782.538 260.079 781.754ZM266.46 784.002C266.647 783.463 266.696 782.956 266.607 782.481C266.527 782.009 266.344 781.606 266.058 781.274C265.771 780.941 265.42 780.703 265.004 780.558C264.588 780.414 264.165 780.383 263.734 780.467C263.306 780.54 262.91 780.736 262.545 781.054C262.193 781.366 261.924 781.791 261.737 782.33C261.55 782.868 261.495 783.378 261.571 783.86C261.656 784.345 261.841 784.758 262.124 785.1C262.421 785.436 262.772 785.674 263.178 785.815C263.594 785.96 264.017 785.99 264.448 785.907C264.879 785.824 265.272 785.622 265.628 785.3C265.995 784.973 266.273 784.54 266.46 784.002ZM272.745 780.659C272.453 780.557 272.241 780.373 272.112 780.105C271.983 779.838 271.969 779.558 272.07 779.265C272.172 778.972 272.357 778.761 272.624 778.632C272.891 778.502 273.171 778.488 273.464 778.59C273.747 778.689 273.954 778.871 274.083 779.139C274.213 779.406 274.227 779.686 274.125 779.979C274.023 780.272 273.839 780.483 273.571 780.612C273.304 780.742 273.029 780.757 272.745 780.659ZM273.18 781.969L270.468 789.776L268.853 789.215L271.564 781.408L273.18 781.969ZM276.517 784.414C276.916 784.15 277.394 783.978 277.952 783.896C278.509 783.815 279.086 783.877 279.681 784.084C280.361 784.32 280.921 784.705 281.36 785.239C281.812 785.766 282.093 786.388 282.205 787.104C282.316 787.82 282.235 788.57 281.963 789.354C281.691 790.138 281.285 790.786 280.748 791.298C280.213 791.801 279.602 792.128 278.914 792.281C278.238 792.428 277.561 792.383 276.88 792.146C276.285 791.94 275.797 791.638 275.416 791.241C275.039 790.835 274.766 790.401 274.598 789.94L272.915 794.786L271.299 794.225L275.3 782.705L276.916 783.267L276.517 784.414ZM280.319 788.783C280.506 788.245 280.554 787.743 280.461 787.277C280.382 786.805 280.192 786.405 279.893 786.079C279.606 785.746 279.255 785.508 278.839 785.364C278.433 785.223 278.01 785.192 277.569 785.272C277.138 785.355 276.74 785.556 276.376 785.874C276.021 786.195 275.749 786.625 275.562 787.163C275.375 787.702 275.32 788.212 275.396 788.693C275.485 789.169 275.673 789.573 275.96 789.905C276.256 790.241 276.607 790.48 277.013 790.621C277.429 790.765 277.852 790.796 278.284 790.712C278.727 790.623 279.129 790.413 279.487 790.082C279.855 789.755 280.132 789.322 280.319 788.783ZM286.085 785.292C285.792 785.19 285.581 785.006 285.451 784.738C285.322 784.471 285.308 784.191 285.41 783.898C285.511 783.605 285.696 783.394 285.963 783.265C286.231 783.135 286.511 783.121 286.803 783.223C287.087 783.322 287.293 783.504 287.423 783.772C287.552 784.039 287.566 784.319 287.464 784.612C287.363 784.905 287.178 785.116 286.911 785.245C286.644 785.375 286.368 785.39 286.085 785.292ZM286.519 786.602L283.807 794.409L282.192 793.848L284.904 786.041L286.519 786.602ZM288.718 796.258C288.104 796.045 287.589 795.744 287.173 795.356C286.77 794.962 286.493 794.527 286.34 794.051C286.192 793.565 286.19 793.083 286.335 792.604L288.007 793.184C287.92 793.525 287.979 793.858 288.184 794.183C288.401 794.502 288.727 794.737 289.162 794.888C289.615 795.045 289.994 795.082 290.299 794.997C290.617 794.906 290.823 794.723 290.918 794.45C291.02 794.157 290.953 793.89 290.719 793.65C290.495 793.413 290.109 793.105 289.564 792.725C289.034 792.361 288.611 792.039 288.295 791.76C287.979 791.481 287.738 791.138 287.573 790.731C287.417 790.328 287.427 789.871 287.604 789.361C287.749 788.945 288.003 788.61 288.366 788.355C288.733 788.091 289.178 787.938 289.7 787.897C290.232 787.86 290.795 787.944 291.391 788.151C292.279 788.459 292.913 788.934 293.294 789.574C293.688 790.209 293.769 790.92 293.538 791.707L291.922 791.146C292.015 790.787 291.97 790.459 291.788 790.163C291.605 789.866 291.296 789.642 290.861 789.492C290.436 789.344 290.083 789.311 289.8 789.393C289.518 789.475 289.33 789.648 289.239 789.912C289.166 790.12 289.181 790.321 289.283 790.515C289.385 790.71 289.53 790.887 289.718 791.047C289.909 791.198 290.195 791.409 290.578 791.68C291.092 792.028 291.501 792.344 291.804 792.63C292.12 792.909 292.358 793.245 292.517 793.639C292.677 794.034 292.674 794.483 292.51 794.987C292.356 795.431 292.095 795.785 291.728 796.049C291.361 796.313 290.916 796.466 290.394 796.507C289.881 796.551 289.322 796.468 288.718 796.258ZM294.317 793.677C294.596 792.874 295.001 792.226 295.532 791.733C296.076 791.234 296.694 790.919 297.385 790.789C298.076 790.658 298.794 790.722 299.541 790.982C300.485 791.31 301.186 791.807 301.643 792.474C302.112 793.134 302.311 793.918 302.239 794.825L300.496 794.219C300.489 793.783 300.367 793.402 300.131 793.076C299.895 792.751 299.541 792.506 299.068 792.342C298.407 792.112 297.796 792.165 297.235 792.499C296.687 792.828 296.267 793.412 295.975 794.253C295.683 795.094 295.649 795.817 295.872 796.424C296.105 797.034 296.552 797.454 297.213 797.684C298.148 798.009 298.91 797.813 299.497 797.096L301.24 797.701C300.738 798.416 300.093 798.901 299.305 799.157C298.521 799.403 297.666 799.366 296.74 799.044C295.994 798.785 295.39 798.39 294.929 797.859C294.471 797.319 294.181 796.689 294.061 795.97C293.953 795.244 294.038 794.48 294.317 793.677ZM305.886 792.169C305.594 792.068 305.382 791.883 305.253 791.616C305.124 791.349 305.11 791.069 305.211 790.776C305.313 790.483 305.498 790.272 305.765 790.142C306.032 790.013 306.312 789.999 306.605 790.101C306.888 790.199 307.095 790.382 307.224 790.649C307.354 790.916 307.368 791.196 307.266 791.489C307.164 791.782 306.98 791.993 306.712 792.123C306.445 792.252 306.17 792.268 305.886 792.169ZM306.321 793.479L303.609 801.287L301.994 800.726L304.705 792.918L306.321 793.479ZM312.425 795.457C313.039 795.67 313.543 795.988 313.936 796.41C314.338 796.836 314.59 797.346 314.69 797.942C314.79 798.538 314.717 799.19 314.471 799.899L312.871 804.504L311.27 803.948L312.786 799.583C313.029 798.884 313.039 798.29 312.818 797.8C312.6 797.301 312.188 796.946 311.584 796.736C310.979 796.526 310.432 796.548 309.941 796.801C309.464 797.048 309.104 797.521 308.861 798.22L307.345 802.584L305.73 802.023L308.441 794.216L310.057 794.777L309.747 795.67C310.123 795.44 310.545 795.307 311.014 795.268C311.492 795.233 311.962 795.296 312.425 795.457ZM320.833 798.377C321.438 798.587 321.929 798.895 322.307 799.302C322.697 799.702 322.962 800.127 323.102 800.578L323.496 799.445L325.125 800.01L322.369 807.946C322.12 808.663 321.747 809.249 321.251 809.701C320.752 810.163 320.159 810.454 319.471 810.575C318.793 810.7 318.057 810.624 317.263 810.348C316.205 809.981 315.414 809.425 314.888 808.682C314.36 807.948 314.196 807.139 314.397 806.256L315.998 806.813C315.98 807.261 316.126 807.678 316.438 808.061C316.756 808.457 317.193 808.752 317.75 808.945C318.402 809.172 318.995 809.156 319.53 808.897C320.074 808.641 320.477 808.135 320.74 807.38L321.192 806.076C320.79 806.349 320.309 806.531 319.748 806.622C319.2 806.707 318.628 806.646 318.033 806.44C317.353 806.203 316.789 805.817 316.34 805.28C315.904 804.737 315.627 804.101 315.51 803.372C315.405 802.637 315.489 801.877 315.761 801.093C316.034 800.309 316.436 799.671 316.967 799.178C317.507 798.688 318.114 798.375 318.786 798.237C319.471 798.094 320.153 798.141 320.833 798.377ZM322.142 803.341C322.329 802.803 322.378 802.296 322.289 801.82C322.21 801.348 322.027 800.946 321.74 800.613C321.453 800.281 321.102 800.042 320.686 799.898C320.271 799.754 319.847 799.723 319.416 799.806C318.988 799.88 318.592 800.076 318.228 800.394C317.876 800.706 317.606 801.131 317.419 801.669C317.232 802.208 317.177 802.718 317.253 803.199C317.339 803.684 317.523 804.098 317.807 804.44C318.103 804.775 318.454 805.014 318.86 805.155C319.276 805.299 319.7 805.33 320.131 805.247C320.562 805.164 320.955 804.961 321.31 804.64C321.678 804.313 321.955 803.88 322.142 803.341ZM336.794 808.224C336.692 808.516 336.581 808.774 336.462 808.997L330.496 806.925C330.327 807.565 330.384 808.146 330.669 808.669C330.953 809.191 331.398 809.557 332.002 809.767C332.871 810.069 333.612 809.918 334.223 809.316L335.966 809.921C335.481 810.557 334.846 810.998 334.062 811.244C333.29 811.484 332.446 811.445 331.53 811.127C330.784 810.868 330.17 810.47 329.69 809.932C329.222 809.389 328.924 808.756 328.793 808.033C328.676 807.304 328.757 806.538 329.036 805.735C329.315 804.932 329.72 804.285 330.251 803.791C330.795 803.292 331.417 802.979 332.117 802.852C332.827 802.728 333.565 802.799 334.33 803.065C335.067 803.321 335.668 803.709 336.132 804.23C336.597 804.752 336.888 805.361 337.006 806.058C337.127 806.746 337.056 807.468 336.794 808.224ZM335.285 807.128C335.482 806.529 335.435 805.979 335.144 805.475C334.853 804.972 334.401 804.614 333.787 804.4C333.229 804.207 332.69 804.221 332.169 804.442C331.65 804.653 331.249 805.048 330.963 805.627L335.285 807.128ZM342.218 802.946L338.577 813.432L336.961 812.871L340.603 802.385L342.218 802.946ZM344.59 805.612C344.297 805.51 344.086 805.326 343.957 805.058C343.827 804.791 343.813 804.511 343.915 804.218C344.017 803.925 344.201 803.714 344.469 803.585C344.736 803.455 345.016 803.441 345.309 803.543C345.592 803.642 345.799 803.824 345.928 804.092C346.057 804.359 346.071 804.639 345.97 804.932C345.868 805.225 345.683 805.436 345.416 805.565C345.149 805.695 344.874 805.71 344.59 805.612ZM345.024 806.922L342.313 814.729L340.697 814.168L343.409 806.361L345.024 806.922ZM348.572 809.631L347.071 813.953C346.969 814.245 346.962 814.481 347.048 814.659C347.147 814.831 347.362 814.975 347.692 815.089L348.684 815.434L348.217 816.78L346.942 816.337C346.214 816.084 345.716 815.721 345.447 815.246C345.178 814.772 345.176 814.152 345.442 813.387L346.943 809.065L346.022 808.745L346.479 807.427L347.4 807.747L348.074 805.806L349.704 806.372L349.03 808.313L350.929 808.973L350.471 810.29L348.572 809.631ZM350.323 817.623C350.03 817.521 349.819 817.336 349.69 817.069C349.56 816.802 349.546 816.522 349.648 816.229C349.75 815.936 349.934 815.725 350.201 815.596C350.469 815.466 350.749 815.452 351.042 815.554C351.325 815.652 351.531 815.835 351.661 816.102C351.79 816.37 351.804 816.65 351.702 816.943C351.601 817.235 351.416 817.447 351.149 817.576C350.882 817.706 350.606 817.721 350.323 817.623Z" fill="#353535"/>
<path d="M825 866.002L829.794 862.944L830.187 868.712L825 866.002ZM871.533 805.66L871.183 805.292L871.533 805.66ZM829.391 865.353C831.976 864.908 834.837 863.871 837.017 862.137C839.185 860.411 840.667 858.01 840.577 854.792L841.577 854.798C841.677 858.387 840.007 861.056 837.656 862.927C835.316 864.788 832.29 865.874 829.593 866.338L829.391 865.353ZM840.577 854.792C840.426 849.327 837.227 845.511 835.491 842.55C835.064 841.822 834.713 841.12 834.553 840.456C834.389 839.776 834.42 839.108 834.791 838.497C835.15 837.904 835.791 837.43 836.701 837.033C837.616 836.634 838.849 836.292 840.461 835.99L840.677 836.973C839.098 837.268 837.946 837.594 837.127 837.951C836.305 838.31 835.866 838.68 835.651 839.036C835.446 839.373 835.406 839.759 835.526 840.253C835.649 840.764 835.935 841.359 836.35 842.067C837.98 844.848 841.416 848.993 841.577 854.798L840.577 854.792ZM840.461 835.99C846.867 834.79 852.926 834.642 857.393 834.189C859.649 833.961 861.48 833.657 862.798 833.126C864.103 832.601 864.823 831.89 865.024 830.879L866.005 831.105C865.717 832.556 864.669 833.463 863.198 834.055C861.742 834.642 859.79 834.955 857.527 835.184C852.957 835.647 847.033 835.782 840.677 836.973L840.461 835.99ZM865.024 830.879C865.231 829.835 864.794 828.756 864.112 827.337C863.451 825.961 862.597 824.329 862.249 822.354C861.539 818.331 862.936 813.076 871.183 805.292L871.883 806.029C863.732 813.722 862.609 818.671 863.234 822.213C863.553 824.02 864.33 825.512 865.011 826.929C865.671 828.302 866.287 829.686 866.005 831.105L865.024 830.879ZM871.183 805.292C873.901 802.726 876.304 800.275 879.654 798.039C883.014 795.797 887.314 793.778 893.855 792.017L894.145 792.983C887.686 794.722 883.486 796.703 880.229 798.876C876.963 801.056 874.632 803.434 871.883 806.029L871.183 805.292Z" fill="black"/>
<defs>
<linearGradient id="paint0_linear_3001_3" x1="-242.812" y1="413.5" x2="1304.4" y2="739.712" gradientUnits="userSpaceOnUse">
<stop stop-color="#FFCC00"/>
<stop offset="1" stop-color="#FFF5CB"/>
</linearGradient>
<linearGradient id="paint1_linear_3001_3" x1="961.428" y1="8.99299" x2="914.777" y2="69.0735" gradientUnits="userSpaceOnUse">
<stop stop-color="#FFCC00"/>
<stop offset="0.4974" stop-color="#FEF4C2"/>
<stop offset="0.9948" stop-color="#FEDC2A"/>
</linearGradient>
<linearGradient id="paint2_linear_3001_3" x1="247.925" y1="715.711" x2="51.832" y2="644.047" gradientUnits="userSpaceOnUse">
<stop stop-color="#52AB70"/>
<stop offset="1" stop-color="#52AB70" stop-opacity="0.48"/>
</linearGradient>
<clipPath id="clip0_3001_3">
<rect width="78" height="79" fill="white" transform="translate(896)"/>
</clipPath>
<clipPath id="clip1_3001_3">
<rect width="32.0667" height="46.011" fill="white" transform="translate(918.533 18.2307)"/>
</clipPath>
</defs>
</svg>
